# xmcd
#
# Track frame offsets:
#	150
#	14225
#	25359
#	38897
#	54506
#	67706
#	80187
#	98349
#	116484
#	135819
#	148578
#	160958
#	169754
#	185128
#	193320
#
# Disc length: 2807 seconds
#
# Revision: 0
# Processed by: cddbd v1.5.1PL0 Copyright (c) Steve Scherf et al.
# Submitted via: EasyCDDAExtractor 8.2.1.1
#
DISCID=ce0af50f
DTITLE=Vasile si Nuti Lataretu Topota - ASTEPT SA-MI CREASCA BAIETII !
DYEAR=2002
DGENRE=Folklore
TTITLE0=ASTEPT SA-MI CREASCA BAIETII
TTITLE1=MULT AR DA DUSMANII MEI
TTITLE2=CATE MANDRE AM IUBIT
TTITLE3=FOAIE VERDE DE-O CICOARE
TTITLE4=NICULAIE, PUI DE LELE
TTITLE5=CAND ERA MANDRA DE-UN AN
TTITLE6=TATA DRAGA
TTITLE7=IN GRADINA CASEI MELE
TTITLE8=IA MANDRUTA SEAMA BINE
TTITLE9=FIR-AI NEICA ALIMANIT
TTITLE10=SA STII MANDRA CUM SE TINE
TTITLE11=MANA, MANA CAR CU BOI
TTITLE12=STEJARULE DIN PADURE
TTITLE13=FUSEI INTR- JOI LA TARG
TTITLE14=DOAR ODATA-N AN E ZIUA TA
EXTD=
EXTT0=
EXTT1=
EXTT2=
EXTT3=
EXTT4=
EXTT5=
EXTT6=
EXTT7=
EXTT8=
EXTT9=
EXTT10=
EXTT11=
EXTT12=
EXTT13=
EXTT14=
PLAYORDER=
